<svg width="785" height="205" viewBox="0 0 785 205" fill="none" xmlns="http://www.w3.org/2000/svg">
<path d="M6.9072 1.52588e-05H158.581H162.192H165.495V3.47951V7.27232V197.375V201.168V204.647H162.192H158.581H6.9072H3.3035H0V201.168V197.375V7.27232V3.47951V1.52588e-05H3.3035H6.9072Z" fill="white"/>
<path d="M9.483 6.83524H156.003H159.486V10.4947V194.143V197.812H156.003H9.483H6.0029V194.143V10.4947V6.83524H9.483ZM152.523 14.1636H12.9628V190.477H152.523V14.1636Z" fill="#ED1C24"/>
<path fill-rule="evenodd" clip-rule="evenodd" d="M22.9932 90.5037L66.4293 107.287L51.6895 101.59C50.4533 102.44 49.2261 103.305 48.0149 104.179C22.4345 122.605 36.8124 137.164 58.4665 148.441C42.6827 129.826 39.2828 124.138 64.9916 109.818L66.4293 109.019V153.255H84.8367V121.64M84.8367 121.64L92.5021 117.37L142.498 136.694V176.413L22.9932 143.947V90.5037M142.498 180.937V182.875H22.9932V148.474L142.498 180.937Z" fill="#2E3092"/>
<path fill-rule="evenodd" clip-rule="evenodd" d="M68.2631 107.997C84.6513 98.9212 100.723 90.3472 116.652 80.8668C122.684 77.2795 127.602 73.6855 131.529 70.1405C133.168 74.7091 130.624 79.5883 122.774 84.386L77.9638 111.748L92.5021 117.361L121.077 101.435C146.067 87.4939 148.773 72.1525 138.651 62.3846C156.349 38.1305 127.941 18.6177 89.0198 24.3125C122.087 30.9328 137.999 40.7594 125.438 54.9813C117.92 52.5815 108.549 51.6489 98.0974 52.7638C106.935 54.701 114.405 57.1569 120.074 59.9777C117.87 61.7233 115.278 63.5388 112.265 65.4177C92.2915 77.866 71.0815 88.2042 51.6895 101.592L68.2631 107.997Z" fill="#2E3092"/>
<path fill-rule="evenodd" clip-rule="evenodd" d="M73.5429 21.1532C79.5688 21.1532 84.4475 26.2896 84.4475 32.6293C84.4475 38.9693 79.5688 44.1057 73.5429 44.1057C67.5167 44.1057 62.6403 38.9693 62.6403 32.6293C62.6403 26.2896 67.5167 21.1532 73.5429 21.1532ZM51.1469 47.6835H66.4271H84.8438V62.8027V114.4L66.4271 107.285V62.8027H51.1469V47.6835Z" fill="#ED1C24"/>
<path d="M254.44 74.0525C253.225 72.9179 251.956 72.1928 250.621 71.8758C249.294 71.5592 247.648 71.4036 245.687 71.4036H235.957C233.576 71.4036 232.108 71.8929 231.547 72.8705C230.989 73.8486 230.709 76.0238 230.709 79.4268V106.042C230.709 109.131 231.152 111.153 232.038 112.131C232.923 113.109 234.537 113.598 236.87 113.598H246.108C247.787 113.598 249.342 113.451 250.762 113.167C252.188 112.888 253.597 112.367 255 111.608L253.597 124H224.964C220.952 124 217.956 122.361 215.975 119.084C213.987 115.817 213 111.436 213 105.961V79.0335C213 73.4983 213.976 69.1035 215.937 65.8684C217.898 62.6221 220.91 61 224.964 61H252.759L254.44 74.0525Z" fill="#231F20"/>
<path d="M297.089 70.9148C297.27 70.2201 297.466 69.291 297.693 68.1255C297.915 66.959 298.023 65.6472 298.023 64.2126C298.023 63.332 297.915 62.2565 297.693 61H309C308.02 62.2565 307.183 63.8209 306.493 65.6795C305.801 67.5226 305.139 69.6505 304.516 72.048L290.4 124H271.728L258.277 70.5385C257.746 68.4533 257.25 66.7487 256.807 65.4433C256.358 64.1212 255.759 62.6392 255 61H275.809C275.499 62.3221 275.34 63.4553 275.34 64.4015C275.34 65.524 275.407 66.5186 275.542 67.3672C275.675 68.2218 275.944 69.4632 276.346 71.1022L286.384 111.039L297.089 70.9148Z" fill="#231F20"/>
<path d="M330 124H312V107H330V124Z" fill="#231F20"/>
<path d="M377 61C376.397 62.2624 375.943 63.7234 375.643 65.4006C375.338 67.055 375.189 68.7106 375.189 70.3497V114.65C375.189 116.547 375.329 118.235 375.608 119.697C375.888 121.179 376.352 122.614 377 124H357C357.604 122.743 358.059 121.277 358.359 119.606C358.663 117.95 358.813 116.296 358.813 114.65V70.3497C358.813 68.4577 358.673 66.7716 358.388 65.3029C358.108 63.8209 357.65 62.3861 357 61H377Z" fill="#231F20"/>
<path d="M425.521 111.229V70.3491C425.521 68.4587 425.372 66.7714 425.075 65.2875C424.779 63.8208 424.287 62.3864 423.597 61H435C434.316 62.3222 433.824 63.7568 433.522 65.3043C433.224 66.835 433.076 68.5229 433.076 70.3491V124H410.892L392.48 72.8271V114.651C392.48 116.543 392.628 118.229 392.925 119.712C393.221 121.175 393.715 122.608 394.403 124H383C383.641 122.737 384.119 121.271 384.442 119.6C384.76 117.944 384.924 116.29 384.924 114.651V70.3491C384.924 68.4587 384.775 66.7714 384.473 65.3043C384.177 63.8208 383.684 62.3864 383 61H407.866L425.521 111.229Z" fill="#231F20"/>
<path d="M442.904 114.65V70.3447C442.904 68.4531 442.756 66.7667 442.464 65.2999C442.17 63.8226 441.676 62.3877 441 61H478.379C482.363 61 485.299 62.6069 487.18 65.8209C489.056 69.0226 490 73.4354 490 79.035V105.96C490 111.56 489.083 115.973 487.248 119.174C485.413 122.393 482.458 124 478.379 124H441C441.635 122.737 442.112 121.27 442.426 119.599C442.746 117.943 442.904 116.289 442.904 114.65ZM468.32 113.592C470.223 113.592 471.435 113.06 471.953 111.985C472.478 110.916 472.739 109.008 472.739 106.23V78.7649C472.739 75.929 472.488 74.0052 471.99 72.9617C471.491 71.9245 470.269 71.4034 468.32 71.4034H460.096V113.592H468.32Z" fill="#231F20"/>
<path d="M532.49 61C536.44 61 539.342 62.6054 541.207 65.8255C543.07 69.0228 544 73.4386 544 79.0336V105.966C544 108.664 543.844 111.104 543.528 113.279C543.216 115.456 542.23 117.789 540.568 120.267C538.907 122.759 536.212 124 532.49 124H506.504C502.512 124 499.599 122.41 497.756 119.223C495.918 116.058 495 111.625 495 105.966V79.0336C495 76.2765 495.156 73.8149 495.467 71.6718C495.783 69.5273 496.77 67.2116 498.432 64.7333C500.092 62.2458 502.782 61 506.504 61H532.49ZM512.029 106.236C512.029 109.008 512.284 110.916 512.802 111.991C513.317 113.06 514.541 113.598 516.468 113.598H522.526C524.458 113.598 525.684 113.06 526.197 111.991C526.711 110.916 526.971 109.008 526.971 106.236V78.7703C526.971 75.9917 526.711 74.0845 526.197 73.0153C525.684 71.9398 524.458 71.4021 522.526 71.4021H516.468C514.541 71.4021 513.317 71.9398 512.802 73.0153C512.284 74.0845 512.029 75.9917 512.029 78.7703V106.236Z" fill="#231F20"/>
<path d="M588.939 114.634C588.939 116.526 589.085 118.213 589.377 119.696C589.673 121.179 590.15 122.614 590.827 124H570C570.629 122.737 571.097 121.271 571.413 119.599C571.726 117.944 571.887 116.29 571.887 114.651V70.3487C571.887 68.4573 571.742 66.771 571.446 65.3043C571.154 63.8271 570.671 62.3923 570 61H607.073C610.89 61 613.832 61.903 615.902 63.6975C617.971 65.4813 619 68.9627 619 74.1215V88.3699C619 93.3993 617.971 96.8385 615.902 98.6495C613.832 100.477 610.89 101.389 607.073 101.389H588.939V114.634ZM597.565 90.9868C599.546 90.9868 600.767 90.4824 601.24 89.4727C601.713 88.4843 601.947 86.527 601.947 83.6425V77.0491C601.947 74.9866 601.724 73.5198 601.277 72.6808C600.825 71.8324 599.883 71.4073 598.443 71.4073H588.939V90.9868H597.565Z" fill="#231F20"/>
<path d="M660.255 61C664.287 61 667.249 62.6054 669.15 65.8255C671.053 69.0228 672 73.4386 672 79.0336V105.966C672 108.664 671.841 111.104 671.518 113.279C671.201 115.456 670.194 117.789 668.498 120.267C666.804 122.759 664.059 124 660.255 124H633.745C629.666 124 626.695 122.41 624.813 119.223C622.939 116.058 622 111.625 622 105.966V79.0336C622 76.2765 622.159 73.8149 622.478 71.6718C622.8 69.5273 623.807 67.2116 625.502 64.7333C627.198 62.2458 629.941 61 633.745 61H660.255ZM639.377 106.236C639.377 109.008 639.636 110.916 640.167 111.991C640.69 113.06 641.942 113.598 643.906 113.598H650.088C652.06 113.598 653.31 113.06 653.835 111.991C654.359 110.916 654.624 109.008 654.624 106.236V78.7703C654.624 75.9917 654.359 74.0845 653.835 73.0153C653.31 71.9398 652.06 71.4021 650.088 71.4021H643.906C641.942 71.4021 640.69 71.9398 640.167 73.0153C639.636 74.0845 639.377 75.9917 639.377 78.7703V106.236Z" fill="#231F20"/>
<path d="M720.522 111.229V70.3491C720.522 68.4587 720.373 66.7714 720.075 65.2875C719.779 63.8208 719.287 62.3864 718.597 61H730C729.317 62.3222 728.818 63.7568 728.522 65.3043C728.225 66.835 728.076 68.5229 728.076 70.3491V124H705.892L687.48 72.8271V114.651C687.48 116.543 687.628 118.229 687.925 119.712C688.221 121.175 688.715 122.608 689.403 124H678C678.641 122.737 679.119 121.271 679.442 119.6C679.76 117.944 679.924 116.29 679.924 114.651V70.3491C679.924 68.4587 679.776 66.7714 679.474 65.3043C679.178 63.8208 678.684 62.3864 678 61H702.866L720.522 111.229Z" fill="#231F20"/>
<path d="M738.864 114.65V70.3447C738.864 68.4531 738.72 66.7667 738.434 65.2999C738.14 63.8226 737.662 62.3877 737 61H773.617C777.519 61 780.395 62.6069 782.238 65.8209C784.076 69.0226 785 73.4354 785 79.035V105.96C785 111.56 784.102 115.973 782.305 119.174C780.507 122.393 777.612 124 773.617 124H737C737.622 122.737 738.089 121.27 738.397 119.599C738.71 117.943 738.864 116.289 738.864 114.65ZM763.763 113.592C765.627 113.592 766.813 113.06 767.321 111.985C767.835 110.916 768.091 109.008 768.091 106.23V78.7649C768.091 75.929 767.845 74.0052 767.358 72.9617C766.869 71.9245 765.672 71.4034 763.763 71.4034H755.706V113.592H763.763Z" fill="#231F20"/>
</svg>
