<svg width="785" height="205" viewBox="0 0 785 205" fill="none" xmlns="http://www.w3.org/2000/svg">
<g clip-path="url(#clip0_446_871)">
<path d="M6.9072 0H158.581H162.192H165.495V3.47949V7.2723V197.375V201.168V204.647H162.192H158.581H6.9072H3.3035H0V201.168V197.375V7.2723V3.47949V0H3.3035H6.9072Z" fill="white"/>
<path d="M9.48303 6.83527H156.003H159.486V10.4947V194.143V197.812H156.003H9.48303H6.00293V194.143V10.4947V6.83527H9.48303ZM152.523 14.1636H12.9628V190.477H152.523V14.1636Z" fill="#ED1C24"/>
<path fill-rule="evenodd" clip-rule="evenodd" d="M22.9932 90.5037L66.4293 107.287L51.6895 101.59C50.4533 102.44 49.2261 103.305 48.0149 104.179C22.4345 122.605 36.8124 137.164 58.4665 148.441C42.6827 129.826 39.2828 124.138 64.9916 109.818L66.4293 109.019V153.255H84.8367V121.64M84.8367 121.64L92.5021 117.37L142.498 136.694V176.413L22.9932 143.947V90.5037M142.498 180.937V182.875H22.9932V148.474L142.498 180.937Z" fill="#2E3092"/>
<path fill-rule="evenodd" clip-rule="evenodd" d="M68.2631 107.997C84.6513 98.9212 100.723 90.3472 116.652 80.8668C122.684 77.2795 127.602 73.6855 131.529 70.1405C133.168 74.7091 130.624 79.5883 122.774 84.386L77.9638 111.748L92.5021 117.361L121.077 101.435C146.067 87.4939 148.773 72.1525 138.651 62.3846C156.349 38.1305 127.941 18.6177 89.0198 24.3125C122.087 30.9328 137.999 40.7594 125.438 54.9813C117.92 52.5815 108.549 51.6489 98.0974 52.7638C106.935 54.701 114.405 57.1569 120.074 59.9777C117.87 61.7233 115.278 63.5388 112.265 65.4177C92.2915 77.866 71.0815 88.2042 51.6895 101.592L68.2631 107.997Z" fill="#2E3092"/>
<path fill-rule="evenodd" clip-rule="evenodd" d="M73.543 21.1532C79.5689 21.1532 84.4476 26.2896 84.4476 32.6293C84.4476 38.9693 79.5689 44.1057 73.543 44.1057C67.5168 44.1057 62.6404 38.9693 62.6404 32.6293C62.6404 26.2896 67.5168 21.1532 73.543 21.1532ZM51.147 47.6835H66.4272H84.8439V62.8027V114.4L66.4272 107.285V62.8027H51.147V47.6835Z" fill="#ED1C24"/>
<path d="M254.44 81.0525C253.225 79.9179 251.956 79.1928 250.621 78.8758C249.294 78.5592 247.648 78.4036 245.687 78.4036H235.957C233.576 78.4036 232.108 78.8929 231.547 79.8705C230.989 80.8486 230.709 83.0238 230.709 86.4268V113.042C230.709 116.131 231.152 118.153 232.038 119.131C232.923 120.109 234.537 120.598 236.87 120.598H246.108C247.787 120.598 249.342 120.451 250.762 120.167C252.188 119.888 253.597 119.367 255 118.608L253.597 131H224.964C220.952 131 217.956 129.361 215.975 126.084C213.987 122.817 213 118.436 213 112.961V86.0335C213 80.4983 213.976 76.1035 215.937 72.8684C217.898 69.6221 220.91 68 224.964 68H252.759L254.44 81.0525Z" fill="white"/>
<path d="M297.089 77.9148C297.27 77.2201 297.466 76.291 297.693 75.1255C297.915 73.959 298.023 72.6472 298.023 71.2126C298.023 70.332 297.915 69.2565 297.693 68H309C308.02 69.2565 307.183 70.8209 306.493 72.6795C305.801 74.5226 305.139 76.6505 304.516 79.048L290.4 131H271.728L258.277 77.5385C257.746 75.4533 257.25 73.7487 256.807 72.4433C256.358 71.1212 255.759 69.6392 255 68H275.809C275.499 69.3221 275.34 70.4553 275.34 71.4015C275.34 72.524 275.407 73.5186 275.542 74.3672C275.675 75.2218 275.944 76.4632 276.346 78.1022L286.384 118.039L297.089 77.9148Z" fill="white"/>
<path d="M330 131H312V114H330V131Z" fill="white"/>
<path d="M377 68C376.397 69.2624 375.943 70.7234 375.643 72.4006C375.338 74.055 375.189 75.7106 375.189 77.3497V121.65C375.189 123.547 375.329 125.235 375.608 126.697C375.888 128.179 376.352 129.614 377 131H357C357.604 129.743 358.059 128.277 358.359 126.606C358.663 124.95 358.813 123.296 358.813 121.65V77.3497C358.813 75.4577 358.673 73.7716 358.388 72.3029C358.108 70.8209 357.65 69.3861 357 68H377Z" fill="white"/>
<path d="M425.521 118.229V77.3491C425.521 75.4587 425.372 73.7714 425.075 72.2875C424.779 70.8208 424.287 69.3864 423.597 68H435C434.316 69.3222 433.824 70.7568 433.522 72.3043C433.224 73.835 433.076 75.5229 433.076 77.3491V131H410.892L392.48 79.8271V121.651C392.48 123.543 392.628 125.229 392.925 126.712C393.221 128.175 393.715 129.608 394.403 131H383C383.641 129.737 384.119 128.271 384.442 126.6C384.76 124.944 384.924 123.29 384.924 121.651V77.3491C384.924 75.4587 384.775 73.7714 384.473 72.3043C384.177 70.8208 383.684 69.3864 383 68H407.866L425.521 118.229Z" fill="white"/>
<path d="M442.904 121.65V77.3447C442.904 75.4531 442.756 73.7667 442.464 72.2999C442.17 70.8226 441.676 69.3877 441 68H478.379C482.363 68 485.299 69.6069 487.18 72.8209C489.056 76.0226 490 80.4354 490 86.035V112.96C490 118.56 489.083 122.973 487.248 126.174C485.413 129.393 482.458 131 478.379 131H441C441.635 129.737 442.112 128.27 442.426 126.599C442.746 124.943 442.904 123.289 442.904 121.65ZM468.32 120.592C470.223 120.592 471.435 120.06 471.953 118.985C472.478 117.916 472.739 116.008 472.739 113.23V85.7649C472.739 82.929 472.488 81.0052 471.99 79.9617C471.491 78.9245 470.269 78.4034 468.32 78.4034H460.096V120.592H468.32Z" fill="white"/>
<path d="M532.49 68C536.44 68 539.342 69.6054 541.207 72.8255C543.07 76.0228 544 80.4386 544 86.0336V112.966C544 115.664 543.844 118.104 543.528 120.279C543.216 122.456 542.23 124.789 540.568 127.267C538.907 129.759 536.212 131 532.49 131H506.504C502.512 131 499.599 129.41 497.756 126.223C495.918 123.058 495 118.625 495 112.966V86.0336C495 83.2765 495.156 80.8149 495.467 78.6718C495.783 76.5273 496.77 74.2116 498.432 71.7333C500.092 69.2458 502.782 68 506.504 68H532.49ZM512.029 113.236C512.029 116.008 512.284 117.916 512.802 118.991C513.317 120.06 514.541 120.598 516.468 120.598H522.526C524.458 120.598 525.684 120.06 526.197 118.991C526.711 117.916 526.971 116.008 526.971 113.236V85.7703C526.971 82.9917 526.711 81.0845 526.197 80.0153C525.684 78.9398 524.458 78.4021 522.526 78.4021H516.468C514.541 78.4021 513.317 78.9398 512.802 80.0153C512.284 81.0845 512.029 82.9917 512.029 85.7703V113.236Z" fill="white"/>
<path d="M588.939 121.634C588.939 123.526 589.085 125.213 589.377 126.696C589.673 128.179 590.15 129.614 590.827 131H570C570.629 129.737 571.097 128.271 571.413 126.599C571.726 124.944 571.887 123.29 571.887 121.651V77.3487C571.887 75.4573 571.742 73.771 571.446 72.3043C571.154 70.8271 570.671 69.3923 570 68H607.073C610.89 68 613.832 68.903 615.902 70.6975C617.971 72.4813 619 75.9627 619 81.1215V95.3699C619 100.399 617.971 103.838 615.902 105.649C613.832 107.477 610.89 108.389 607.073 108.389H588.939V121.634ZM597.565 97.9868C599.546 97.9868 600.767 97.4824 601.24 96.4727C601.713 95.4843 601.947 93.527 601.947 90.6425V84.0491C601.947 81.9866 601.724 80.5198 601.277 79.6808C600.825 78.8324 599.883 78.4073 598.443 78.4073H588.939V97.9868H597.565Z" fill="white"/>
<path d="M660.255 68C664.287 68 667.249 69.6054 669.15 72.8255C671.053 76.0228 672 80.4386 672 86.0336V112.966C672 115.664 671.841 118.104 671.518 120.279C671.201 122.456 670.194 124.789 668.498 127.267C666.804 129.759 664.059 131 660.255 131H633.745C629.666 131 626.695 129.41 624.813 126.223C622.939 123.058 622 118.625 622 112.966V86.0336C622 83.2765 622.159 80.8149 622.478 78.6718C622.8 76.5273 623.807 74.2116 625.502 71.7333C627.198 69.2458 629.941 68 633.745 68H660.255ZM639.377 113.236C639.377 116.008 639.636 117.916 640.167 118.991C640.69 120.06 641.942 120.598 643.906 120.598H650.088C652.06 120.598 653.31 120.06 653.835 118.991C654.359 117.916 654.624 116.008 654.624 113.236V85.7703C654.624 82.9917 654.359 81.0845 653.835 80.0153C653.31 78.9398 652.06 78.4021 650.088 78.4021H643.906C641.942 78.4021 640.69 78.9398 640.167 80.0153C639.636 81.0845 639.377 82.9917 639.377 85.7703V113.236Z" fill="white"/>
<path d="M720.522 118.229V77.3491C720.522 75.4587 720.373 73.7714 720.075 72.2875C719.779 70.8208 719.287 69.3864 718.597 68H730C729.317 69.3222 728.818 70.7568 728.522 72.3043C728.225 73.835 728.076 75.5229 728.076 77.3491V131H705.892L687.48 79.8271V121.651C687.48 123.543 687.628 125.229 687.925 126.712C688.221 128.175 688.715 129.608 689.403 131H678C678.641 129.737 679.119 128.271 679.442 126.6C679.76 124.944 679.924 123.29 679.924 121.651V77.3491C679.924 75.4587 679.776 73.7714 679.474 72.3043C679.178 70.8208 678.684 69.3864 678 68H702.866L720.522 118.229Z" fill="white"/>
<path d="M738.864 121.65V77.3447C738.864 75.4531 738.72 73.7667 738.434 72.2999C738.14 70.8226 737.662 69.3877 737 68H773.617C777.519 68 780.395 69.6069 782.238 72.8209C784.076 76.0226 785 80.4354 785 86.035V112.96C785 118.56 784.102 122.973 782.305 126.174C780.507 129.393 777.612 131 773.617 131H737C737.622 129.737 738.089 128.27 738.397 126.599C738.71 124.943 738.864 123.289 738.864 121.65ZM763.763 120.592C765.627 120.592 766.813 120.06 767.321 118.985C767.835 117.916 768.091 116.008 768.091 113.23V85.7649C768.091 82.929 767.845 81.0052 767.358 79.9617C766.869 78.9245 765.672 78.4034 763.763 78.4034H755.706V120.592H763.763Z" fill="white"/>
</g>
<defs>
<clipPath id="clip0_446_871">
<rect width="785" height="205" fill="white"/>
</clipPath>
</defs>
</svg>
