<svg width="309" height="323" viewBox="0 0 309 323" fill="none" xmlns="http://www.w3.org/2000/svg">
<path d="M137.341 111.393C132.64 116.737 126.117 124.672 123.731 127.59C123.809 126.432 124.371 118.14 126.141 91.9343C126.201 91.945 126.273 91.9596 126.357 91.9756C126.464 91.9903 126.587 92.0103 126.721 92.033C127.297 92.1063 127.991 92.197 128.793 92.2996C130.399 92.4996 132.439 92.7556 134.825 93.0516C139.535 93.6223 145.599 94.3556 152.367 95.173C150.619 97.0063 142.549 105.5 137.341 111.393ZM115.528 109.626C112.22 102.19 106.596 90.8556 106.596 90.8556C106.567 90.8116 106.527 90.7796 106.48 90.757L106.507 90.717L106.973 90.033L107.477 89.2903C110.148 85.3316 112.851 81.4263 115.429 77.517C117.951 73.573 120.437 69.6823 122.873 65.8716C125.296 62.0543 127.579 58.265 129.84 54.617C138.821 39.9836 146.451 26.9796 151.872 17.6583C154.063 13.8596 155.891 10.689 157.3 8.24763C153.453 17.5636 146.916 33.4823 142.299 45.181C135.393 62.7343 125.165 90.1943 125.165 90.1943C125.149 90.2396 125.151 90.277 125.143 90.3196C125.008 90.3063 124.864 90.2916 124.756 90.281C123.324 114.28 122.753 123.89 122.585 126.705C121.101 122.969 117.955 115.122 115.528 109.626ZM105.22 88.917L103.836 88.7996L100.264 88.497L93.112 87.8943C74.0413 86.3116 55.0826 84.7356 38.4279 83.3516C35.7919 83.1396 33.0999 82.9223 30.7306 82.729C30.1386 82.6823 29.5666 82.6356 29.02 82.593C28.848 82.5783 28.68 82.565 28.5173 82.5516H28.512L28.4786 82.5543C86.0346 47.1276 159.357 1.99429 159.357 1.99429C159.467 1.92629 159.561 1.86229 159.661 1.79562C159.596 1.89429 159.535 1.98629 159.468 2.09429C159.468 2.09429 156.171 7.68363 150.693 16.965C145.185 26.2276 137.441 39.153 128.353 53.697C126.065 57.321 123.756 61.089 121.311 64.8796C118.853 68.6623 116.343 72.5276 113.8 76.4423C111.203 80.3183 108.488 84.185 105.807 88.1076L105.301 88.841C105.271 88.8663 105.26 88.9383 105.22 88.917ZM174.564 35.861C181.983 54.805 191.324 78.6543 199.012 98.2823L199.008 98.2796C198.513 98.2236 197.953 98.1596 197.4 98.0956C183.329 96.549 166.679 94.7183 152.888 93.2023C145.991 92.4716 139.809 91.817 135.024 91.3116C131.217 90.929 128.239 90.6316 126.357 90.4423C127.323 88.117 137.852 62.7596 144.453 46.0316C150.704 30.145 159.673 6.14629 161.32 1.73163C161.34 1.79029 161.348 1.83429 161.372 1.89562C161.372 1.89562 166.985 16.3516 174.564 35.861ZM202.583 101.012C194.275 80.3263 184.181 55.1916 176.164 35.2263C168.305 15.8276 162.483 1.4543 162.483 1.4543C162.057 0.435632 161.577 0.0116335 161.303 0.1063C161.172 -0.156366 160.283 0.0436348 158.733 0.974302C158.733 0.974302 139.889 12.3623 113.649 28.2183C86.5533 44.6583 51.8213 65.733 21.2746 84.2676C24.6586 84.545 31.592 85.1143 38.2346 85.6596C54.896 86.9876 73.864 88.4996 92.9413 90.021L100.096 90.5823L103.671 90.8623L105.624 91.0156C105.537 91.1116 105.485 91.2236 105.503 91.3396C105.503 91.3396 110.121 103.12 113.409 110.565C116.716 118.001 122.34 129.336 122.34 129.336C122.443 129.519 122.752 129.502 123.017 129.388C123.235 129.583 123.529 129.692 123.697 129.521C123.697 129.521 133.211 119.564 139.079 112.926C144.929 106.274 153.617 95.5903 153.617 95.5903C153.668 95.509 153.669 95.417 153.649 95.3236C167.235 96.909 183.408 98.7956 197.139 100.398C199.271 100.638 201.44 100.884 202.583 101.012Z" fill="white"/>
<path d="M1.81865 179.074C1.73731 179.046 0.746632 179.199 0.637299 179.258C0.637299 179.258 0.319986 180.538 0.458653 181.317C0.615986 182.094 1.38131 183.17 1.38131 183.17C1.42531 183.204 2.52931 182.958 2.54798 182.913C2.54798 182.913 2.8653 181.631 2.73463 180.889C2.58396 180.15 1.81865 179.074 1.81865 179.074Z" fill="white"/>
<path d="M2.17729 163.205C2.17729 163.205 1.79464 163.705 1.31864 164.418C0.867969 165.133 0.422629 166.106 0.211962 166.9C0.0652957 167.705 -0.061384 168.75 0.0319494 169.585C0.0839494 170.419 0.158642 171.038 0.158642 171.038C0.187975 171.124 1.31597 171.192 1.35197 171.113C1.35197 171.113 1.55062 170.538 1.76795 169.794C1.94529 169.038 2.32661 168.166 2.46128 167.452C2.63861 166.754 2.77328 165.829 2.93328 165.086C3.11728 164.355 3.23328 163.762 3.23328 163.762C3.19995 163.658 2.31729 163.181 2.17729 163.205Z" fill="white"/>
<path d="M11.5853 155.081C10.832 155.379 9.90265 155.852 9.22531 156.355C8.54265 156.857 8.06128 157.257 8.06128 157.257C8.00528 157.326 8.56797 158.308 8.65197 158.296C8.65197 158.296 9.2413 158.152 9.9773 157.933C10.7106 157.71 11.656 157.536 12.34 157.27C13.72 156.778 15.8959 155.721 15.8946 155.721C15.9559 155.629 15.7533 154.649 15.6466 154.552C15.6466 154.552 13.132 154.553 11.5853 155.081Z" fill="white"/>
<path d="M27.6973 152.653C26.1453 152.757 23.7826 153.447 23.7826 153.447C23.7053 153.489 23.796 154.617 23.88 154.64C23.88 154.64 26.3133 155.045 27.848 154.965C29.38 154.864 31.7413 154.171 31.7413 154.171C31.8186 154.093 31.772 153.092 31.684 152.978C31.684 152.978 29.2506 152.571 27.6973 152.653Z" fill="white"/>
<path d="M61.7706 147.717C62.3493 147.106 62.7506 146.629 62.7506 146.629C62.7693 146.519 62.1267 145.752 61.988 145.708C61.988 145.708 61.432 145.954 60.7453 146.302C60.0706 146.667 59.1613 146.992 58.548 147.389C57.8853 147.713 57.1426 148.324 56.476 148.729C55.8226 149.155 55.3306 149.516 55.3306 149.516C55.272 149.581 55.6733 150.638 55.7613 150.63C55.7613 150.63 56.3746 150.521 57.184 150.326C58 150.16 58.9587 149.757 59.688 149.406C60.3667 148.96 61.2066 148.347 61.7706 147.717Z" fill="white"/>
<path d="M69.368 132.302C69.368 132.302 69.124 132.856 68.8066 133.574C68.4533 134.281 68.052 135.15 67.8413 135.86C67.6906 136.593 67.3693 137.47 67.2053 138.237C67.024 138.993 66.9093 139.594 66.9093 139.594C66.912 139.684 67.9106 140.216 67.9693 140.15C67.9693 140.15 68.3386 139.652 68.7986 138.955C69.2373 138.257 69.86 137.38 70.0386 136.592C70.2613 135.817 70.416 134.789 70.508 133.973C70.5773 133.15 70.5426 132.521 70.5413 132.521C70.484 132.426 69.4986 132.247 69.368 132.302Z" fill="white"/>
<path d="M69.868 120.046C69.712 119.65 69.3453 119.293 69.0453 118.912C68.716 118.548 68.428 118.157 68.044 117.92C67.3333 117.396 66.796 117.056 66.796 117.056C66.6853 117.052 66.0453 117.822 66.024 117.968C66.024 117.968 66.3306 118.48 66.74 119.084C66.972 119.361 67.1013 119.774 67.292 120.125C67.4547 120.494 67.704 120.797 67.82 121.133C68.0826 121.776 68.672 122.493 68.9306 123.205C69.2533 123.886 69.5386 124.42 69.5386 124.42C69.5946 124.485 70.708 124.289 70.712 124.2C70.712 124.2 70.692 123.57 70.6093 122.716C70.596 121.848 70.1946 120.829 69.868 120.046Z" fill="white"/>
<path d="M58.8573 115.611C58.9306 115.565 58.9186 114.435 58.8293 114.416C58.8293 114.416 58.2053 114.329 57.3506 114.265C56.4946 114.188 55.4373 114.348 54.6279 114.525C53.8613 114.836 52.8706 115.225 52.2079 115.773C51.5213 116.272 51.0386 116.671 51.0386 116.671C50.9999 116.773 51.5039 117.641 51.6333 117.707C51.6333 117.707 52.2226 117.568 52.9533 117.356C53.668 117.092 54.6213 117.017 55.284 116.748C55.9773 116.595 56.8306 116.189 57.5586 116.001C58.284 115.8 58.8573 115.611 58.8573 115.611Z" fill="white"/>
<path d="M42.9493 130.026C42.9493 130.026 43.2306 129.488 43.5546 128.789C43.836 128.074 44.3693 127.276 44.5999 126.588C44.9066 125.933 45.1493 125.016 45.4319 124.304C45.7106 123.592 45.904 123.017 45.904 123.017C45.9133 122.929 44.9866 122.281 44.9186 122.34C44.9186 122.34 44.48 122.785 43.9226 123.422C43.364 124.053 42.8159 124.954 42.4626 125.693C42.2066 126.469 41.9 127.473 41.8706 128.318C41.796 129.157 41.7786 129.781 41.7786 129.781C41.832 129.877 42.8133 130.078 42.9493 130.026Z" fill="white"/>
<path d="M41.6 142.167C42.0546 143.719 43.292 145.895 43.292 145.896C43.3866 145.949 44.3266 145.603 44.416 145.484C44.4146 145.485 44.26 143.061 43.8573 141.644C43.604 140.19 42.6626 137.947 42.6626 137.947C42.612 137.873 41.4866 137.989 41.4746 138.076C41.4746 138.077 41.336 140.572 41.6 142.167Z" fill="white"/>
<path d="M48.0679 152.577C48.0439 152.565 47.936 152.618 47.8053 152.697C47.8253 152.473 47.6773 151.671 47.588 151.576C47.588 151.576 45.132 151.314 43.6213 151.483C42.1146 151.674 39.7959 152.505 39.7973 152.505C39.7213 152.552 39.804 153.681 39.8906 153.698C39.8906 153.697 42.3453 153.958 43.912 153.781C45.228 153.616 47.0626 153.005 47.6146 152.814C47.3466 152.989 47.064 153.205 47.08 153.25C47.08 153.25 48.1213 155.519 49.0973 156.804C50.2133 157.959 52.2946 159.334 52.2959 159.334C52.4039 159.34 53.0906 158.61 53.116 158.466C53.116 158.466 51.8746 156.371 50.8546 155.293C49.948 154.122 48.0679 152.577 48.0679 152.577Z" fill="white"/>
<path d="M59.4587 163.371C59.3707 163.365 58.76 164.317 58.8173 164.381C58.8187 164.381 60.644 166.073 62.0227 166.876C63.4667 167.549 65.8946 168.089 65.8946 168.089C65.9973 168.054 66.3893 167.131 66.364 166.988C66.364 166.988 64.448 165.473 63.0946 164.824C61.7933 164.085 59.4587 163.371 59.4587 163.371Z" fill="white"/>
<path d="M77.9013 169.847C76.4293 169.536 73.9839 169.566 73.9839 169.566C73.8986 169.586 73.612 170.681 73.688 170.725C73.6893 170.725 75.9386 171.78 77.4893 172.128C79.0653 172.343 81.5426 172.138 81.5426 172.138C81.6333 172.074 81.7359 171.078 81.6679 170.949C81.6679 170.949 79.3879 170.069 77.9013 169.847Z" fill="white"/>
<path d="M93.5253 170.221C92.0386 170.406 89.708 171.158 89.708 171.158C89.632 171.204 89.6893 172.333 89.7746 172.352C89.7746 172.353 92.2333 172.695 93.816 172.519C95.4133 172.355 97.6986 171.27 97.6986 171.27C97.7613 171.181 97.5253 170.206 97.42 170.109C97.42 170.107 95.0146 170.092 93.5253 170.221Z" fill="white"/>
<path d="M111.637 163.43C111.637 163.43 109.353 164.285 108.108 165.102C106.797 165.814 104.961 167.417 104.961 167.417C104.908 167.488 105.388 168.512 105.475 168.495C105.475 168.495 107.879 167.841 109.295 167.092C110.627 166.2 112.345 164.394 112.345 164.394C112.369 164.289 111.775 163.482 111.637 163.43Z" fill="white"/>
<path d="M121.799 151.6C121.799 151.6 121.404 152.064 120.928 152.68C120.471 153.306 119.808 154.013 119.428 154.649C118.985 155.245 118.593 156.13 118.193 156.802C117.812 157.485 117.541 158.034 117.541 158.034C117.521 158.118 118.371 158.866 118.444 158.817C118.444 158.817 118.935 158.436 119.56 157.89C120.204 157.361 120.872 156.574 121.357 155.931C121.764 155.236 122.229 154.313 122.468 153.51C122.723 152.714 122.879 152.11 122.879 152.11C122.849 152.005 121.943 151.58 121.799 151.6Z" fill="white"/>
<path d="M123.851 140.186C123.851 140.185 123.364 141.385 123.395 142.102C123.379 142.819 123.883 144.01 123.883 144.01C123.92 144.052 125.045 144.152 125.075 144.11C125.075 144.11 125.676 142.908 125.711 142.083C125.657 141.259 125.039 140.065 125.039 140.065C124.963 140.031 123.965 140.135 123.851 140.186Z" fill="white"/>
<path d="M145.463 56.0329C145.868 54.9383 146.157 53.8316 146.484 52.8116C147.721 48.7089 148.659 45.6049 148.659 45.6049C148.747 45.1769 148.104 44.9916 147.892 45.3889C147.892 45.3889 146.812 48.4223 145.383 52.4289C145.016 53.4276 144.687 54.5049 144.244 55.5769C143.795 56.6462 143.332 57.7436 142.872 58.8383C141.969 61.0343 141.071 63.2156 140.283 65.1329C138.659 68.9623 136.603 73.8449 135.067 77.8422C133.525 81.8289 132.359 84.8476 132.359 84.8476C132.216 85.2569 132.912 85.5449 133.1 85.1409C133.1 85.1409 138.336 73.3289 141.705 65.7343C142.464 63.7916 143.327 61.5809 144.197 59.3556C144.621 58.2409 145.047 57.1223 145.463 56.0329Z" fill="white"/>
<path d="M151.167 42.1584C151.167 42.1584 151.679 41.3531 152.351 40.2958C152.977 39.2104 153.748 37.8571 154.248 36.7424C154.705 35.6038 155.311 34.1784 155.615 32.9344C155.929 31.7131 156.169 30.7838 156.169 30.7838C156.164 30.6504 155.521 30.4704 155.403 30.5678C155.403 30.5678 155.021 31.4184 154.52 32.5358C154.063 33.6558 153.288 35.0051 152.839 36.1078C152.356 37.2024 151.763 38.6198 151.311 39.7704C150.833 40.9051 150.472 41.7704 150.472 41.7704C150.436 41.8918 151.091 42.2664 151.167 42.1584Z" fill="white"/>
<path d="M154.416 86.1492C152.659 85.9159 150.889 85.7052 149.295 85.6519C146.121 85.4825 143.717 85.3545 143.717 85.3545C143.396 85.3519 143.351 86.1025 143.677 86.1505C143.677 86.1505 146.047 86.4345 149.176 86.8119C150.743 86.9545 152.485 87.2559 154.22 87.5572C155.956 87.8346 157.681 88.1092 159.197 88.3519C165.252 89.4079 174.744 90.7865 174.743 90.7865C175.069 90.7945 175.191 90.1385 174.883 90.0012C174.883 90.0012 165.54 87.9039 159.451 86.8279C157.921 86.5972 156.172 86.3719 154.416 86.1492Z" fill="white"/>
<path d="M181.103 92.665C181.805 92.6544 182.763 92.1584 182.764 92.1597C182.792 92.105 182.704 91.4437 182.66 91.3704C182.66 91.3704 181.651 91.129 181.076 91.1224C180.481 91.1744 179.636 91.3557 179.601 91.357C179.567 91.3757 179.315 92.0864 179.347 92.1104C179.347 92.1104 179.585 92.253 179.949 92.413C180.331 92.6037 180.747 92.6424 181.103 92.665Z" fill="white"/>
<path d="M104.479 41.0265C104.479 41.0265 100.132 43.6518 94.3867 47.1225C88.604 50.5385 81.6653 55.1518 76.0267 58.4385C73.216 60.0931 70.0893 62.0971 66.84 63.9425C63.604 65.8091 60.348 67.6851 57.4453 69.3571C51.5666 72.5731 47.1173 75.0065 47.1173 75.0065C46.5307 75.3451 46.8506 76.0291 47.4813 75.7158C47.4813 75.7158 52.012 73.4185 58.0013 70.3811C60.9506 68.7731 64.26 66.9691 67.548 65.1758C70.8413 63.3865 74.0053 61.4171 76.8267 59.7598C82.48 56.4571 89.34 51.6705 95.0146 48.1038C100.643 44.4598 104.901 41.7025 104.901 41.7025C105.453 41.2971 105.109 40.7238 104.479 41.0265Z" fill="white"/>
<path d="M109.796 38.9279C109.796 38.9279 111.236 38.3159 113.133 37.5066C113.605 37.2946 114.119 37.0919 114.623 36.8399C115.117 36.5706 115.625 36.2932 116.132 36.0172C117.143 35.4612 118.144 34.8959 119.013 34.3826C119.852 33.8226 120.767 33.1226 121.693 32.4319C122.616 31.7372 123.551 31.0506 124.285 30.3079C125.787 28.8852 126.925 27.8079 126.925 27.8079C127.051 27.6346 126.592 27.1506 126.377 27.2279C126.377 27.2279 125.157 28.1666 123.548 29.4039C122.777 30.0586 121.805 30.6559 120.863 31.2786C119.925 31.9092 118.995 32.5359 118.177 33.0852C117.329 33.5879 116.376 34.1799 115.423 34.7852C114.945 35.0919 114.468 35.3972 114.001 35.6959C113.529 35.9812 113.047 36.2186 112.604 36.4679C110.825 37.4519 109.476 38.1999 109.476 38.1999C109.301 38.3119 109.595 39.0066 109.796 38.9279Z" fill="white"/>
<path d="M129.412 13.8036C129.412 13.8036 130.589 13.3303 132.137 12.709C133.711 12.109 135.508 11.0703 136.945 10.3023C138.316 9.42764 140.039 8.2703 141.349 7.23564C142.645 6.1943 143.629 5.40097 143.629 5.40097C143.739 5.2623 143.341 4.72629 143.155 4.76096C143.155 4.76096 142.091 5.41563 140.689 6.27563C139.273 7.11829 137.521 8.16096 136.151 8.97829C134.752 9.73163 133.073 10.9196 131.62 11.665C130.188 12.4636 129.1 13.069 129.1 13.069C128.961 13.1636 129.247 13.8623 129.412 13.8036Z" fill="white"/>
<path d="M135.399 7.34506C135.948 7.07573 136.591 6.61573 137.104 6.28373C137.612 5.93973 138.007 5.67307 138.007 5.67307C138.044 5.60107 137.801 4.97973 137.711 4.93306C137.711 4.93306 137.228 5.06373 136.607 5.23039C135.979 5.41173 135.253 5.70506 134.704 5.9664C133.651 6.5384 132.068 7.53306 132.069 7.53306C132.02 7.57973 132.261 8.2944 132.328 8.28507C132.328 8.28507 134.293 7.93039 135.399 7.34506Z" fill="white"/>
<path d="M152.827 106.365C152.827 106.365 151.543 107.693 149.849 109.442C149.031 110.342 148.027 111.269 147.044 112.205C146.073 113.152 145.108 114.093 144.261 114.918C143.383 115.709 142.399 116.628 141.415 117.56C140.439 118.502 139.451 119.442 138.501 120.2C136.651 121.778 135.249 122.977 135.249 122.977C135.071 123.148 135.501 123.766 135.715 123.622C135.715 123.622 137.232 122.538 139.233 121.106C140.257 120.409 141.319 119.528 142.355 118.625C143.4 117.734 144.432 116.838 145.327 116.037C146.18 115.193 147.117 114.2 148.06 113.201C149.003 112.204 149.951 111.201 150.711 110.228C152.261 108.321 153.436 106.877 153.436 106.877C153.565 106.657 153.053 106.228 152.827 106.365Z" fill="white"/>
<path d="M151.376 115.849C151.376 115.849 149.003 117.704 147.641 119.056C146.288 120.417 144.444 122.778 144.444 122.778C144.392 122.868 144.933 123.39 145.02 123.329C145.02 123.329 147.393 121.476 148.757 120.122C150.108 118.761 151.952 116.4 151.952 116.4C151.987 116.294 151.505 115.83 151.376 115.849Z" fill="white"/>
<path d="M175.337 199.282C175.337 199.282 175.964 198.202 177.005 196.41C177.575 195.545 178.305 194.536 179.096 193.389C179.915 192.26 180.944 191.096 181.972 189.809C186.319 184.829 192.745 179.637 198.144 176.137C203.515 172.585 210.816 168.729 216.936 166.174C218.476 165.564 219.924 164.989 221.228 164.472C222.548 163.997 223.724 163.574 224.704 163.222C226.691 162.585 227.885 162.202 227.885 162.202C228.517 161.958 228.349 161.312 227.665 161.437C227.665 161.437 226.448 161.781 224.425 162.354C223.425 162.678 222.228 163.066 220.88 163.502C219.543 163.964 218.071 164.514 216.5 165.094C210.251 167.5 202.761 171.24 197.299 174.845C191.812 178.408 185.373 183.853 181.084 189.053C180.071 190.396 179.059 191.61 178.259 192.789C177.485 193.985 176.777 195.034 176.227 195.934C175.229 197.797 174.629 198.918 174.629 198.918C174.32 199.525 174.985 199.877 175.337 199.282Z" fill="white"/>
<path d="M219.564 179.137C223.793 177.164 227.068 175.812 227.068 175.812C227.491 175.589 227.255 174.964 226.776 175.071C226.776 175.071 223.428 176.252 219.089 178.072C214.751 179.881 209.475 182.491 205.604 185.011C201.723 187.499 197.153 191.34 194.183 195.064C193.477 196.023 192.755 196.876 192.22 197.727C191.685 198.579 191.181 199.319 190.813 199.967C190.123 201.287 189.705 202.081 189.705 202.081C189.496 202.513 190.165 202.859 190.416 202.444C190.416 202.444 190.859 201.691 191.595 200.437C191.981 199.823 192.507 199.125 193.06 198.321C193.616 197.517 194.356 196.717 195.073 195.815C198.101 192.316 202.644 188.735 206.444 186.307C210.223 183.839 215.329 181.101 219.564 179.137Z" fill="white"/>
<path d="M225.809 190.506C224.58 191.336 223.389 192.138 222.275 192.889C218.003 196.134 212.747 200.609 209.279 204.918C208.396 205.977 207.491 206.908 206.815 207.858C206.139 208.809 205.539 209.656 205.037 210.361C204.04 211.773 203.44 212.622 203.44 212.622C203.131 213.084 203.748 213.516 204.1 213.068C204.1 213.068 204.729 212.253 205.773 210.901C206.295 210.224 206.917 209.413 207.619 208.502C208.317 207.592 209.247 206.705 210.148 205.694C213.7 201.57 218.984 197.322 223.185 194.137C224.275 193.389 225.439 192.589 226.643 191.762C227.245 191.346 227.855 190.924 228.471 190.497C229.113 190.11 229.761 189.722 230.412 189.333C231.711 188.552 233.013 187.768 234.283 187.004C235.593 186.313 236.871 185.642 238.076 185.009C240.461 183.693 242.661 182.748 244.219 182.034C245.777 181.322 246.716 180.893 246.716 180.893C247.205 180.628 246.969 180.002 246.417 180.154C246.417 180.154 245.456 180.546 243.86 181.197C242.264 181.852 240.009 182.72 237.557 183.965C236.32 184.566 235.008 185.205 233.66 185.86C232.356 186.598 231.016 187.358 229.68 188.114C229.013 188.496 228.347 188.876 227.687 189.253C227.055 189.676 226.427 190.094 225.809 190.506Z" fill="white"/>
<path d="M252.333 197.147C253.619 196.485 254.876 195.983 255.984 195.465C257.125 195.032 258.14 194.645 258.987 194.324C260.711 193.779 261.763 193.489 261.763 193.489C262.315 193.287 262.185 192.631 261.579 192.713C261.579 192.713 260.492 192.964 258.708 193.456C257.833 193.752 256.784 194.109 255.605 194.508C254.463 194.993 253.16 195.464 251.833 196.093C246.479 198.52 240.236 202.357 235.683 205.807C231.104 209.227 225.683 214.141 221.789 218.533C220.805 219.62 219.953 220.708 219.149 221.653C218.405 222.647 217.741 223.532 217.188 224.271C216.172 225.811 215.56 226.74 215.56 226.74C215.247 227.245 215.875 227.659 216.229 227.171C216.229 227.171 216.865 226.283 217.923 224.809C218.493 224.104 219.177 223.257 219.945 222.307C220.771 221.403 221.641 220.361 222.647 219.323C226.623 215.115 232.091 210.408 236.609 207.041C241.096 203.633 247.145 199.699 252.333 197.147Z" fill="white"/>
<path d="M268.711 206.896C268.711 206.896 267.959 207.215 266.707 207.741C265.465 208.288 263.736 209.073 261.796 210.033C257.92 211.96 253.267 214.728 249.889 217.295C246.503 219.839 242.533 223.581 239.861 227.028C238.521 228.748 237.471 230.347 236.751 231.507C236.075 232.695 235.668 233.409 235.668 233.409C235.463 233.799 236.115 234.176 236.361 233.805C236.361 233.805 236.795 233.125 237.517 231.999C238.28 230.9 239.383 229.389 240.761 227.769C243.513 224.517 247.503 221.012 250.82 218.528C254.119 216.013 258.589 213.135 262.339 211.064C264.215 210.033 265.888 209.173 267.092 208.568C268.305 207.98 269.033 207.625 269.033 207.625C269.412 207.399 269.151 206.784 268.711 206.896Z" fill="white"/>
<path d="M101.121 233.824C101.121 233.824 101.957 233.008 103.348 231.653C104.783 230.347 106.82 228.556 109.272 226.68C114.155 222.893 120.816 219.024 126.251 216.473C131.644 213.827 138.895 211.225 144.901 209.8C146.404 209.451 147.828 209.175 149.107 208.915C150.397 208.713 151.547 208.533 152.504 208.385C154.433 208.187 155.595 208.068 155.595 208.068C156.217 207.965 156.197 207.297 155.547 207.272C155.547 207.272 154.364 207.349 152.403 207.479C151.427 207.597 150.256 207.739 148.941 207.899C147.637 208.119 146.184 208.353 144.649 208.663C138.516 209.925 131.077 212.392 125.589 215.077C120.065 217.677 113.388 221.777 108.552 225.763C106.123 227.74 104.119 229.624 102.715 230.999C101.359 232.42 100.543 233.277 100.543 233.277C100.116 233.744 100.655 234.271 101.121 233.824Z" fill="white"/>
<path d="M138.481 225.15C134.241 227.384 129.145 230.916 125.756 234.533C124.943 235.466 124.107 236.273 123.489 237.121C122.867 237.962 122.279 238.685 121.851 239.332C121.043 240.656 120.556 241.453 120.556 241.453C120.307 241.888 120.956 242.27 121.243 241.858C121.243 241.858 121.751 241.105 122.597 239.857C123.04 239.248 123.644 238.569 124.281 237.78C124.911 236.985 125.761 236.23 126.58 235.357C130.001 231.972 135.061 228.692 139.205 226.514C143.321 224.264 148.892 221.97 153.528 220.602C155.839 219.893 157.909 219.422 159.395 219.11C160.884 218.824 161.787 218.684 161.787 218.685C162.267 218.564 162.2 217.898 161.687 217.894C161.687 217.893 160.761 217.99 159.235 218.213C157.712 218.461 155.588 218.849 153.215 219.48C148.455 220.689 142.701 222.852 138.481 225.15Z" fill="white"/>
<path d="M137.028 244.713C135.368 246.62 134.169 248.491 133.357 249.839C132.604 251.224 132.151 252.059 132.151 252.059C131.92 252.512 132.584 252.868 132.856 252.432C132.856 252.432 133.336 251.637 134.133 250.317C134.984 249.037 136.224 247.272 137.895 245.492C141.135 241.805 146.349 238.541 150.672 236.565C154.997 234.552 160.829 232.619 165.592 231.252C170.359 229.867 173.965 228.82 173.965 228.82C174.44 228.64 174.272 227.993 173.755 228.051C173.755 228.051 170.107 228.945 165.284 230.128C160.461 231.32 154.48 233.097 150.024 235.164C145.577 237.199 140.237 240.773 137.028 244.713Z" fill="white"/>
<path d="M153.033 256.272C151.219 258.009 149.697 259.607 148.621 260.757C147.567 261.927 146.931 262.631 146.931 262.631C146.601 263.016 147.144 263.539 147.515 263.172C147.515 263.172 148.177 262.503 149.277 261.391C150.395 260.297 151.967 258.779 153.823 257.129C157.513 253.801 162.476 250.121 166.599 247.643C170.696 245.128 176.277 242.487 181.037 241.136C183.413 240.448 185.543 240.013 187.075 239.739C188.615 239.517 189.541 239.384 189.541 239.384C190.036 239.273 189.991 238.607 189.467 238.589C189.467 238.589 188.517 238.683 186.941 238.836C185.372 239.047 183.183 239.399 180.731 240.011C175.815 241.209 169.997 243.752 165.8 246.323C161.58 248.867 156.639 252.771 153.033 256.272Z" fill="white"/>
<path d="M171.529 266.5C170.877 267.429 170.197 268.251 169.712 269.081C169.227 269.907 168.764 270.625 168.433 271.255C167.824 272.539 167.457 273.315 167.457 273.315C167.273 273.735 167.959 274.047 168.181 273.645C168.181 273.645 168.576 272.915 169.231 271.7C169.58 271.104 170.064 270.429 170.568 269.653C171.072 268.875 171.769 268.104 172.433 267.235C175.245 263.849 179.567 260.429 183.183 258.141C186.761 255.78 191.704 253.344 195.844 251.789C196.876 251.395 197.865 251.08 198.748 250.765C199.643 250.497 200.441 250.257 201.107 250.057C202.455 249.715 203.265 249.508 203.265 249.508C203.695 249.36 203.575 248.703 203.104 248.727C203.104 248.727 202.269 248.895 200.885 249.173C200.199 249.344 199.376 249.549 198.453 249.777C197.544 250.056 196.523 250.333 195.456 250.691C191.183 252.096 186.037 254.419 182.351 256.84C178.635 259.197 174.287 262.883 171.529 266.5Z" fill="white"/>
<path d="M306.717 238.801C306.612 238.842 306.497 238.89 306.371 238.941C305.853 239.157 305.164 239.442 304.337 239.786C302.689 240.485 300.491 241.416 298.019 242.462C293.08 244.57 287.053 247.172 282.136 249.345C269.812 254.805 250.816 263.612 250.816 263.612C250.341 263.842 250.387 264.297 250.725 264.386C250.695 264.664 250.679 264.997 250.701 265.437C250.719 265.44 250.685 265.694 250.621 266.188C250.589 266.434 250.552 266.737 250.507 267.098C250.428 267.453 250.277 267.846 250.143 268.3C249.847 269.194 249.279 270.226 248.436 271.292C247.531 272.294 246.396 273.409 244.832 274.182C243.303 274.981 241.451 275.596 239.407 275.685C237.38 275.781 235.132 275.297 233.319 273.912L232.899 273.588C232.693 273.458 232.487 273.218 232.279 273.174C231.928 273.417 231.575 273.664 231.22 273.912C230.711 274.265 230.195 274.625 229.672 274.986C228.629 275.71 227.56 276.456 226.468 277.213C224.285 278.732 222.013 280.312 219.669 281.94C210.297 288.466 199.785 295.786 189.333 303.065C184.112 306.71 178.907 310.344 173.865 313.861C171.347 315.625 168.869 317.357 166.452 319.046C166.001 319.362 165.555 319.677 165.108 319.989C165.157 319.082 165.203 317.842 165.148 316.882C165.064 315.509 164.677 313.481 164.564 312.91L164.713 312.802L165.605 312.161L166.528 311.492C167.733 310.622 168.945 309.748 170.163 308.866C172.589 307.096 175.056 305.333 177.544 303.596C187.444 296.568 197.575 289.745 206.763 283.917C215.915 278.021 224.189 273.237 230.139 269.872C231.299 269.204 232.353 268.632 233.341 268.105C233.387 268.138 233.425 268.168 233.475 268.205C233.712 268.393 234.013 268.596 234.368 268.802C234.72 269.01 235.099 269.268 235.555 269.461C236.421 269.918 237.52 270.25 238.673 270.374C239.843 270.461 241.06 270.148 241.96 269.601C242.891 269.076 243.637 268.136 244.205 267.166C244.763 266.182 245.105 265.122 245.329 264.18C245.548 263.237 245.683 262.401 245.727 261.805C245.728 261.797 245.728 261.79 245.729 261.782C253.185 258.238 269.935 250.246 281.641 244.42C286.316 242.165 291.751 239.5 296.263 237.25C300.052 235.365 302.695 234.017 304.952 232.857C305.156 233.437 305.689 234.954 307.007 238.705C306.973 238.716 306.917 238.733 306.837 238.758C306.803 238.772 306.761 238.785 306.717 238.801ZM162.709 309.364C157.683 306.369 152.783 303.538 148.345 300.64C146.108 299.224 143.793 297.76 141.419 296.257C139.076 294.705 136.673 293.114 134.232 291.494C129.321 288.302 124.368 284.812 119.336 281.417C109.332 274.521 99.3227 267.5 90.2907 261.38C85.8013 258.288 81.5186 255.473 77.6613 252.938C76.7466 252.336 75.8586 251.752 74.996 251.184C74.8306 251.077 74.6667 250.973 74.5067 250.87C74.5907 250.777 74.8106 250.686 74.9586 250.594C76.6533 249.674 78.2226 248.824 79.652 248.049C85.6653 244.786 89.2853 242.824 89.2853 242.824C89.5293 242.688 89.7346 242.553 89.904 242.421C101.924 251.418 113.855 260.349 124.356 268.208C135.053 276.145 147.229 285.182 159.479 294.268L164.079 297.672L166.613 299.546L167.7 300.354C167.903 300.633 168.009 300.242 168.151 300.109L168.557 299.562L169.701 298.024C170.812 296.513 171.907 294.994 173.152 293.609L174.956 291.489C175.564 290.792 176.236 290.153 176.868 289.486C181.979 284.185 187.695 279.754 193.491 276.27C199.289 272.776 205.155 270.224 210.588 268.398C216.029 266.56 221.068 265.606 225.265 264.888C227.383 264.65 229.287 264.38 230.961 264.242C232.639 264.142 234.08 264.057 235.252 263.986C236.425 263.934 237.336 263.973 237.951 263.964C238.219 263.964 238.42 263.964 238.575 263.964C238.133 264.188 237.481 264.521 236.639 264.95C234.969 265.833 232.477 267.008 229.48 268.672C223.461 271.958 215.085 276.64 205.835 282.434C196.541 288.164 186.305 294.89 176.32 301.849C173.809 303.568 171.325 305.314 168.879 307.073C167.652 307.948 166.431 308.817 165.217 309.682L164.331 310.314C164.323 310.317 164.32 310.328 164.299 310.309L162.709 309.364ZM86.036 236.841L86.5 236.12L88.0266 233.757C89.04 232.181 90.2506 230.75 91.3453 229.249C92.4706 227.768 93.7667 226.438 94.956 225.037C99.944 219.628 105.615 215.129 111.409 211.653C123.037 204.648 134.911 201.848 143.343 201.013C145.467 200.882 147.377 200.648 149.056 200.648C150.736 200.64 152.176 200.632 153.351 200.626C155.695 200.768 156.975 200.845 156.975 200.845C158.336 200.924 159.079 200.686 159.125 200.398C159.127 200.398 159.128 200.4 159.128 200.4C158.944 200.628 158.969 201.016 159.388 201.354C159.388 201.354 183.576 220.656 199.359 232.809C213.517 243.689 234.949 259.617 239.237 262.8C239.121 262.79 239.029 262.774 238.903 262.768C238.903 262.768 238.577 262.762 237.955 262.754C237.331 262.757 236.409 262.708 235.217 262.745C234.027 262.802 232.565 262.869 230.861 262.948C229.161 263.068 227.227 263.317 225.073 263.533C220.801 264.21 215.671 265.122 210.111 266.926C204.56 268.726 198.553 271.26 192.597 274.768C186.643 278.265 180.752 282.74 175.471 288.122C174.815 288.802 174.123 289.45 173.493 290.158L171.627 292.317C170.337 293.726 169.201 295.273 168.051 296.812L167.488 297.554C167.467 297.614 167.427 297.581 167.389 297.544L165.343 296.005L160.767 292.57C148.553 283.426 136.411 274.338 125.744 266.354C115.043 258.414 102.861 249.377 90.6093 240.286L86.0853 236.941C86.0613 236.912 85.9746 236.9 86.036 236.841ZM161.961 195.94C162.588 194.678 163.557 193.282 164.524 191.656C164.773 191.253 165.028 190.84 165.292 190.416C165.592 190.017 165.9 189.609 166.213 189.193C166.839 188.36 167.491 187.492 168.163 186.597C173.659 179.484 182.593 172.594 190.144 168.238C197.668 163.788 208.039 159.444 216.668 156.796C218.837 156.177 220.861 155.548 222.711 155.061C224.564 154.592 226.213 154.173 227.588 153.824C230.361 153.21 232.032 152.84 232.032 152.84C232.305 152.761 232.469 152.61 232.551 152.444C232.592 152.704 232.793 153.052 233.244 153.449C233.244 153.449 235.728 155.621 239.853 159.229C243.959 162.861 249.815 167.796 256.212 173.73C259.439 176.665 262.861 179.778 266.376 182.977C269.865 186.206 273.447 189.521 277.017 192.826C284.165 199.436 291.272 206.005 297.515 211.777C298.839 212.989 300.207 214.244 301.611 215.53C301.613 215.532 301.624 215.536 301.62 215.537L301.615 215.54L301.612 215.542L301.497 215.57C300.364 215.874 299.189 216.076 298.061 216.473C293.472 217.828 288.944 219.804 284.553 222.041C280.225 224.398 276.048 227.04 272.2 229.91C268.379 232.808 264.777 235.785 261.604 238.821C255.188 244.826 250.141 250.669 246.697 254.958C243.256 259.254 241.332 261.95 241.331 261.95C241.135 262.236 241.024 262.474 240.952 262.688C240.899 262.601 240.831 262.514 240.741 262.426C240.741 262.426 216.552 243.126 200.771 230.973C184.975 218.836 160.116 200.408 160.116 200.408C160.007 200.329 159.899 200.277 159.796 200.246C159.861 200.181 159.921 200.1 159.973 199.998C159.973 199.998 160.72 198.472 161.961 195.94ZM239.781 264.69C240.764 264.134 241.135 263.628 240.993 263.385C240.996 263.382 240.997 263.377 240.999 263.374C241.127 263.638 241.463 263.802 241.889 263.604C241.889 263.604 242.924 263.114 244.684 262.278C244.565 262.745 244.407 263.278 244.211 263.854C243.917 264.705 243.519 265.63 242.991 266.429C242.451 267.21 241.833 267.914 241.155 268.284C240.497 268.677 239.657 268.95 238.729 268.956C237.807 268.909 236.84 268.732 236.012 268.388C235.585 268.26 235.211 268.057 234.863 267.898C234.644 267.802 234.451 267.705 234.271 267.608C235.415 267.006 236.411 266.493 237.209 266.054C238.872 265.172 239.781 264.69 239.781 264.69ZM303.583 231.674C303.032 231.858 299.241 233.597 295.371 235.389C290.795 237.51 285.311 240.084 280.631 242.336C267.644 248.817 248.825 258.63 243.076 261.637C243.955 260.5 245.548 258.476 247.753 255.828C251.251 251.636 256.36 245.934 262.789 240.108C265.971 237.158 269.563 234.28 273.356 231.484C277.173 228.718 281.296 226.186 285.54 223.93C287.593 222.913 289.673 221.96 291.768 221.096C292.852 222.066 296.232 225.093 303.583 231.674ZM305.671 232.489C305.935 232.353 306.199 232.217 306.456 232.084C298.631 225.382 294.653 221.977 293.04 220.597C294.919 219.86 296.805 219.188 298.701 218.642C299.796 218.264 300.929 218.081 302.025 217.793C303.105 217.533 304.18 217.276 305.249 217.018C307.221 216.974 305.26 215.918 304.672 215.22C302.755 213.454 300.887 211.732 299.08 210.069C292.799 204.338 285.649 197.816 278.459 191.254C274.845 187.99 271.252 184.685 267.689 181.53C264.121 178.381 260.648 175.314 257.375 172.424C250.877 166.588 244.917 161.745 240.741 158.189C236.54 154.658 234.011 152.532 234.011 152.532C233.329 151.973 232.797 151.9 232.603 152.117C232.548 151.853 232.275 151.632 231.809 151.666C231.809 151.666 230.115 151.974 227.299 152.488C225.899 152.79 224.221 153.154 222.336 153.562C220.455 153.99 218.389 154.558 216.176 155.117C207.375 157.525 196.699 161.682 188.979 166.236C181.244 170.705 172.205 178.04 166.783 185.525C166.121 186.465 165.479 187.377 164.863 188.253C164.556 188.69 164.255 189.12 163.961 189.538C163.705 189.982 163.456 190.416 163.215 190.837C162.276 192.541 161.341 194.001 160.744 195.313C159.576 197.948 158.872 199.534 158.872 199.534C158.787 199.738 158.784 199.916 158.831 200.061C158.519 199.885 157.961 199.725 157.071 199.653C157.071 199.653 155.771 199.558 153.392 199.385C152.199 199.376 150.735 199.364 149.028 199.352C147.32 199.33 145.376 199.544 143.212 199.652C134.623 200.398 122.485 203.106 110.515 210.152C104.551 213.646 98.696 218.2 93.528 223.705C92.2933 225.13 90.952 226.486 89.7853 227.996C88.6466 229.528 87.3933 230.989 86.3387 232.597L84.7506 235.013L83.656 236.685L83.288 237.246L83.196 237.388C83.2346 237.422 83.2853 237.456 83.3293 237.49L83.6 237.693L84.6907 238.509L88.9173 241.682C88.8573 241.71 88.8093 241.722 88.748 241.756C88.748 241.756 85.0893 243.666 79.0146 246.838C77.42 247.673 75.668 248.589 73.7773 249.578C73.4106 249.772 73.0413 249.966 72.668 250.164L72.1026 250.46L71.8173 250.61C71.7506 250.662 71.5347 250.706 71.708 250.772C72.42 251.253 73.1466 251.742 73.884 252.241C74.8293 252.882 75.804 253.545 76.8053 254.224C80.62 256.809 84.8533 259.674 89.3 262.82C98.2026 269.106 108.189 276.156 118.119 283.166C123.132 286.614 128.063 290.142 132.973 293.377C135.417 295.01 137.819 296.617 140.164 298.185C142.545 299.697 144.868 301.174 147.112 302.601C151.569 305.508 156.509 308.341 161.581 311.325C162.316 311.754 163.055 312.19 163.795 312.625L163.905 312.69C163.811 312.7 163.739 312.716 163.735 312.742C163.735 312.742 163.519 315.354 163.613 317.054C163.668 317.926 163.844 319.058 163.995 319.921L163.704 319.732C162.501 318.945 161.319 318.169 160.155 317.409C142.791 306.112 120.953 291.909 103.291 280.418C85.6986 269.046 72.2667 260.361 71.6067 259.934C71.6013 252.634 71.6013 252.314 71.6013 252.314C71.5506 249.989 70.8827 249.95 70.804 252.314C70.804 252.314 70.804 252.653 70.7986 260.372C71.464 260.809 84.9586 269.737 102.632 281.426C120.236 293.005 142.001 307.317 159.309 318.7C160.473 319.461 161.659 320.234 162.86 321.021L163.765 321.612C164.048 321.786 164.364 322.021 164.663 322.18L165.524 321.576C166.12 321.156 166.719 320.734 167.323 320.309C169.737 318.612 172.211 316.872 174.725 315.101C179.752 311.557 184.944 307.898 190.151 304.229C200.556 296.874 211.021 289.478 220.351 282.888C222.681 281.237 224.94 279.638 227.111 278.101C228.196 277.333 229.259 276.581 230.297 275.846C230.815 275.478 231.328 275.117 231.835 274.757C232.521 274.333 232.076 274.325 232.701 274.734C234.763 276.278 237.26 276.776 239.451 276.653C241.664 276.533 243.637 275.857 245.264 274.984C246.925 274.138 248.141 272.934 249.104 271.841C250.005 270.682 250.611 269.552 250.925 268.576C251.069 268.081 251.224 267.648 251.305 267.262C251.352 266.869 251.391 266.538 251.421 266.27C251.485 265.734 251.516 265.456 251.499 265.456C251.463 264.933 251.396 264.553 251.319 264.264C253.257 263.446 271.112 255.904 282.759 250.757C287.676 248.578 293.653 245.868 298.535 243.63C300.972 242.505 303.139 241.504 304.765 240.753C306.584 239.894 307.796 239.322 308.105 239.176C306.451 234.633 305.861 233.016 305.671 232.489Z" fill="white"/>
<path d="M93.6933 235.588C93.6933 235.588 94.6213 236.197 96.1626 237.209C97.7053 238.216 99.8747 239.603 102.232 241.351C107.056 244.687 112.721 249.295 117.193 252.855C121.625 256.479 127.284 261.107 131.836 264.828C136.392 268.555 139.896 271.307 139.896 271.307C140.389 271.651 140.819 271.14 140.401 270.691C140.401 270.691 137.035 267.781 132.587 263.935C128.156 260.071 122.611 255.287 118.165 251.656C113.669 248.084 107.856 243.597 102.893 240.391C100.469 238.709 98.2346 237.389 96.6453 236.436C95.0573 235.48 94.1027 234.904 94.1027 234.904C93.584 234.608 93.1826 235.247 93.6933 235.588Z" fill="white"/>
<path d="M161.788 287.966C160.663 287.19 159.493 286.191 158.321 285.211C157.14 284.248 155.967 283.287 154.935 282.445C153.923 281.576 152.771 280.588 151.611 279.593C150.432 278.62 149.259 277.625 148.253 276.69C146.204 274.861 144.652 273.476 144.652 273.476C144.435 273.305 143.893 273.828 144.089 274.041C144.089 274.041 145.539 275.549 147.453 277.536C148.4 278.544 149.521 279.617 150.664 280.653C151.807 281.69 152.944 282.721 153.941 283.628C154.988 284.476 156.219 285.401 157.449 286.333C158.679 287.268 159.917 288.205 161.112 288.917C163.455 290.39 165.229 291.508 165.229 291.508C165.488 291.625 165.845 291.06 165.653 290.833C165.653 290.833 163.987 289.598 161.788 287.966Z" fill="white"/>
<path d="M251.432 176.432C253.457 178.335 255.761 180.5 258.08 182.68C260.397 184.86 262.755 187.024 264.924 188.884C269.227 192.633 272.481 195.472 272.481 195.472C272.945 195.824 273.391 195.325 273.005 194.871C273.005 194.871 269.863 191.921 265.711 188.024C263.612 186.104 261.323 183.875 259.057 181.647C256.772 179.441 254.5 177.248 252.505 175.321C248.504 171.469 243.384 166.571 239.176 162.715C234.973 158.857 231.795 155.939 231.795 155.939C231.361 155.559 230.831 156.096 231.251 156.52C231.251 156.52 243.529 168.636 251.432 176.432Z" fill="white"/>
<path d="M278.577 201.474C278.973 201.808 279.412 202.137 279.832 202.513C280.247 202.9 280.672 203.296 281.096 203.69C281.947 204.476 282.8 205.249 283.561 205.912C286.577 208.62 291.281 212.845 291.281 212.845C291.468 212.958 291.943 212.489 291.845 212.281C291.845 212.281 290.775 211.108 289.363 209.561C287.937 208.025 286.093 206.169 284.6 204.769C283.824 204.097 282.925 203.35 282.016 202.606C281.56 202.237 281.103 201.868 280.656 201.506C280.2 201.157 279.723 200.856 279.289 200.553C277.539 199.378 276.212 198.486 276.212 198.486C276.028 198.38 275.604 199.004 275.768 199.148C275.768 199.148 276.979 200.152 278.577 201.474Z" fill="white"/>
<path d="M90.96 255.916C90.4933 255.588 89.8293 255.172 89.124 254.562C88.3973 253.984 87.5827 253.334 86.7733 252.69C86.3507 252.376 85.9707 252.03 85.5213 251.758C85.3013 251.62 85.084 251.484 84.872 251.35C84.7987 251.305 84.7827 251.296 84.7827 251.294C84.736 251.318 84.6626 251.348 85.6266 250.626C86.452 249.929 87.1947 249.185 87.8533 248.552C88.5107 247.92 89.1173 247.425 89.5667 247.088C90.0347 246.778 90.316 246.593 90.316 246.593C90.4587 246.482 90.136 245.801 89.9507 245.885C89.9507 245.885 89.6227 246.048 89.0787 246.318C88.5533 246.621 87.8386 247.082 87.092 247.668C86.3506 248.252 85.556 248.916 84.7573 249.501C84.3053 249.785 84.14 249.96 83.068 250.545C82.6333 250.792 82.2053 251.034 81.788 251.272C82.1933 251.52 82.5867 251.762 82.968 251.997C83.5093 252.318 84.0893 252.662 84.6893 253.017C85.108 253.242 85.5187 253.572 85.9453 253.846C86.8067 254.42 87.6747 254.998 88.4493 255.513C89.2093 256.049 89.9773 256.424 90.5027 256.705C91.032 256.982 91.3507 257.149 91.3507 257.149C91.54 257.205 91.836 256.606 91.712 256.44C91.712 256.44 91.4293 256.242 90.96 255.916Z" fill="white"/>
<path d="M84.7853 251.295H84.788C84.808 251.28 84.7973 251.287 84.7827 251.295C84.7867 251.297 84.7987 251.303 84.7853 251.295Z" fill="white"/>
<path d="M286.747 235.832C286.747 235.832 287.048 235.775 287.548 235.679C288.039 235.564 288.785 235.489 289.528 235.208C291.073 234.748 292.904 233.991 294.3 233.465C294.472 233.396 294.652 233.325 294.837 233.252L295.123 233.133L295.632 232.848L295.887 232.704C295.972 232.656 296.075 232.623 296.076 232.511C296.139 232.327 296.161 232.137 296.183 231.948C296.168 231.583 295.972 231.104 295.795 230.86C295.172 229.997 294.459 229.468 293.825 228.957C292.549 227.98 291.556 227.327 291.556 227.327C291.4 227.265 290.98 227.785 291.057 227.948C291.059 227.948 291.948 228.755 293.059 229.835C293.596 230.369 294.237 231.012 294.589 231.616C294.667 231.755 294.587 231.708 294.597 231.715V231.707L294.309 231.812C294.115 231.885 293.924 231.957 293.74 232.027C292.267 232.591 290.549 233.501 289.129 234.112C288.428 234.476 287.791 234.613 287.339 234.792C286.883 234.951 286.608 235.047 286.608 235.047C286.465 235.111 286.579 235.857 286.747 235.832Z" fill="white"/>
<path d="M111.056 205.026C111.056 205.026 111.293 204.893 111.687 204.672C112.072 204.441 112.619 204.136 113.279 203.858C114.557 203.226 116.256 202.717 117.577 202.325C118.911 201.97 120.625 201.492 122.053 201.306C122.761 201.168 123.392 201.118 123.844 201.066C124.296 201.016 124.569 200.985 124.569 200.985C124.716 200.929 124.721 200.261 124.565 200.188C124.565 200.188 124.284 200.176 123.816 200.156C123.348 200.138 122.689 200.097 121.941 200.146C120.439 200.152 118.579 200.465 117.155 200.84C115.744 201.264 113.993 201.996 112.725 202.833C112.072 203.212 111.543 203.614 111.176 203.917C110.805 204.209 110.583 204.386 110.583 204.386C110.471 204.492 110.921 205.094 111.056 205.026Z" fill="white"/>
<path d="M111.991 200.355C112.009 200.381 112.527 199.919 113.321 199.547C114.081 199.105 115.141 198.865 115.948 198.652C116.775 198.493 117.851 198.256 118.761 198.232C119.212 198.183 119.613 198.193 119.903 198.188C120.193 198.183 120.368 198.179 120.368 198.179C120.467 198.139 120.565 197.477 120.477 197.389C120.477 197.389 120.297 197.348 120.001 197.281C119.704 197.216 119.288 197.112 118.799 197.068C117.829 196.901 116.575 196.96 115.608 197.145C114.656 197.395 113.463 197.892 112.692 198.565C111.881 199.171 111.453 199.813 111.432 199.785C111.373 199.869 111.908 200.401 111.991 200.355Z" fill="white"/>
<path d="M277.94 256.997C277.94 256.997 273.643 258.041 270.963 258.927C268.287 259.828 264.224 261.568 264.224 261.568C264.091 261.639 264.304 262.361 264.453 262.331C264.453 262.331 268.751 261.287 271.456 260.391C274.156 259.484 278.22 257.743 278.22 257.743C278.343 257.649 278.111 257.023 277.94 256.997Z" fill="white"/>
<path d="M273.024 262.317C271.673 262.817 269.719 263.921 269.719 263.921C269.659 263.969 269.936 264.672 270.015 264.661C270.015 264.661 272.201 264.255 273.517 263.781C274.839 263.355 276.835 262.388 276.835 262.388C276.893 262.317 276.733 261.669 276.64 261.615C276.64 261.615 274.405 261.883 273.024 262.317Z" fill="white"/>
<path d="M117.033 294.724C116.297 294.398 115.512 293.945 114.733 293.494C113.944 293.06 113.163 292.633 112.475 292.254C111.14 291.424 109.328 290.544 107.948 289.682C106.543 288.864 105.476 288.245 105.476 288.245C105.325 288.174 104.888 288.786 105.02 288.898C105.02 288.898 106.008 289.656 107.308 290.656C108.596 291.682 110.357 292.748 111.717 293.601C112.428 293.978 113.26 294.372 114.095 294.762C114.927 295.164 115.772 295.541 116.565 295.792C118.125 296.325 119.311 296.732 119.311 296.732C119.483 296.75 119.712 296.122 119.584 295.984C119.584 295.984 118.484 295.44 117.033 294.724Z" fill="white"/>
<path d="M108.743 295.284C107.949 294.802 106.889 294.252 106.008 293.901C105.129 293.557 104.456 293.294 104.456 293.294C104.36 293.27 104.021 293.945 104.099 294.005C104.099 294.005 104.687 294.406 105.453 294.924C106.232 295.432 107.148 296.114 107.907 296.584C109.416 297.516 111.809 298.997 111.809 298.997C111.916 299.016 112.345 298.505 112.319 298.385C112.319 298.385 110.325 296.294 108.743 295.284Z" fill="white"/>
</svg>
